<svg xmlns="http://www.w3.org/2000/svg" width="48" height="48" viewBox="0 0 48 48">
  <path d="M7.47826117,7 C5.55739144,7 4,8.52226462 4,10.3999992 C4,12.2777337 5.55739144,13.7999983 7.47826117,13.7999983 C9.3991309,13.7999983 10.9565223,12.2777337 10.9565223,10.3999992 C10.9565223,8.52226462 9.3991309,7 7.47826117,7 Z M18.78261,8.69999958 C17.8220882,8.69999958 17.0434794,9.46108938 17.0434794,10.3999992 C17.0434794,11.3389089 17.8220882,12.0999987 18.78261,12.0999987 L42.2608694,12.0999987 C43.2213912,12.0999987 44,11.3389089 44,10.3999992 C44,9.46108938 43.2213912,8.69999958 42.2608694,8.69999958 L18.78261,8.69999958 Z M7.47826117,20.5999966 C5.55739144,20.5999966 4,22.1222612 4,23.9999958 C4,25.8777388 5.55739144,27.4000034 7.47826117,27.4000034 C9.3991309,27.4000034 10.9565223,25.8777388 10.9565223,23.9999958 C10.9565223,22.1222612 9.3991309,20.5999966 7.47826117,20.5999966 Z M18.78261,22.2999962 C17.8220882,22.2999962 17.0434794,23.061086 17.0434794,23.9999958 C17.0434794,24.9389055 17.8220882,25.7000038 18.78261,25.7000038 L42.2608694,25.7000038 C43.2213912,25.7000038 44,24.9389055 44,23.9999958 C44,23.061086 43.2213912,22.2999962 42.2608694,22.2999962 L18.78261,22.2999962 Z M7.47826117,34.2000017 C5.55739144,34.2000017 4,35.7222663 4,37.6000008 C4,39.4777354 5.55739144,41 7.47826117,41 C9.3991309,41 10.9565223,39.4777354 10.9565223,37.6000008 C10.9565223,35.7222663 9.3991309,34.2000017 7.47826117,34.2000017 Z M18.78261,35.9000013 C17.8220882,35.9000013 17.0434794,36.6610911 17.0434794,37.6000008 C17.0434794,38.5389106 17.8220882,39.3000004 18.78261,39.3000004 L42.2608694,39.3000004 C43.2213912,39.3000004 44,38.5389106 44,37.6000008 C44,36.6610911 43.2213912,35.9000013 42.2608694,35.9000013 L18.78261,35.9000013 Z"/>
</svg>
