<svg xmlns="http://www.w3.org/2000/svg" width="48" height="48" viewBox="0 0 48 48">
  <path d="M42.5615561,8.05686079 C42.8416921,8.3298515 42.9993117,8.70392443 43,9.0951882 L43,43.5477169 C43,44.3501858 42.3488729,45 41.5463209,45 L9.7877007,45 C8.98446042,45 8.33402163,44.3494982 8.33402163,43.5477169 L8.33402163,32.3702254 L11.2406915,32.3702254 L11.2406915,42.0954338 L40.0926419,42.0954338 L40.0926419,10.5467837 L36.791579,10.5467837 C35.9883387,10.5467837 35.3378999,9.89628186 35.3378999,9.09450056 L35.3378999,5.90387858 L11.2400032,5.90387858 L11.2400032,15.6297746 L8.33333333,15.6297746 L8.33333333,4.45228311 C8.33333333,3.64981418 8.98446042,3 9.7870124,3 L36.7908907,3 C37.1708295,3 37.5349376,3.14852895 37.8068141,3.4139557 L42.5615561,8.05686079 Z M32.7561353,17.6666667 C33.9959277,17.6666667 35.000695,18.6361229 34.9999996,19.8323446 L34.9999996,28.1676554 C34.9999996,29.3638771 33.9952324,30.3333333 32.7554399,30.3333333 L5.2445597,30.3333333 C4.00476728,30.3333333 3,29.3638771 3,28.1676554 L3,19.8323446 C3,18.6361229 4.00476728,17.6666667 5.2445597,17.6666667 L32.7561353,17.6666667 Z M5.9390426,20.0694213 L5.9390426,21.6839504 L9.86102048,21.6839504 L5.51692236,26.0632959 L5.51692236,27.6314008 L12.9494445,27.6314008 L12.9494445,26.0065553 L8.39695789,26.0065553 L12.7891457,21.5807856 L12.7891457,20.0694213 L5.9390426,20.0694213 Z M13.2326391,20.1375111 L14.974553,27.6994905 L17.3469756,27.6994905 L18.7148588,22.9384353 L20.0880854,27.6994905 L22.460508,27.6994905 L24.186392,20.1375111 L21.8994621,20.1375111 L21.0712516,24.3621094 L19.8583238,20.1375111 L17.5660506,20.1375111 L16.3584661,24.3621094 L15.5302555,20.1375111 L13.2326391,20.1375111 Z M24.4909598,23.8555693 C24.4909598,24.7393521 24.6708489,25.4752536 25.0306325,26.0632959 C25.3904161,26.6513382 25.8597307,27.0811872 26.4385905,27.3528558 C27.0174503,27.6245245 27.7485837,27.7603568 28.6320127,27.7603568 C29.5011929,27.7603568 30.2269831,27.603032 30.8094051,27.2883778 C31.3918271,26.9737236 31.8370971,26.5335582 32.1452286,25.9678685 C32.4533601,25.4021787 32.6074236,24.6774532 32.6074236,23.7936704 C32.6074236,22.5763197 32.2547697,21.6297922 31.5494513,20.9540594 C30.844133,20.2783267 29.8396037,19.9404653 28.5358334,19.9404653 C27.2641231,19.9404653 26.2720614,20.2843445 25.5596186,20.9721133 C24.8471758,21.659882 24.4909598,22.6210244 24.4909598,23.8555693 Z M26.911472,23.8658858 C26.911472,23.0955848 27.0593017,22.5436587 27.3549654,22.2100908 C27.6506292,21.876523 28.0424668,21.7097416 28.5304902,21.7097416 C29.0398867,21.7097416 29.4433014,21.8739439 29.7407463,22.2023535 C30.0381911,22.530763 30.1869113,23.0508803 30.1869113,23.762721 C30.1869113,24.6086765 30.0444249,25.1949906 29.7594478,25.5216807 C29.4744707,25.8483709 29.0719466,26.0117135 28.5518633,26.0117135 C28.046029,26.0117135 27.6461764,25.8449321 27.3522938,25.5113642 C27.0584112,25.1777964 26.911472,24.6293091 26.911472,23.8658858 Z"/>
</svg>
