<svg xmlns="http://www.w3.org/2000/svg" width="48" height="48" viewBox="0 0 48 48">
  <g>
    <circle cx="36.5" cy="40.5" r="2.5"/>
    <circle cx="5.5" cy="25.5" r="2.5"/>
    <circle cx="34.5" cy="6.5" r="2.5"/>
    <path d="M45.4787536,25.4390404 L39.4680554,22.0175133 C40.4785809,19.3140598 39.4013864,16.1971801 36.7864061,14.7086456 C35.7386542,14.1120306 34.5839612,13.8587695 33.4570187,13.9098221 L31.7571293,6.79048314 C31.6461271,6.32767272 31.2271617,6.00000161 30.74525,6.00000161 L17.8155312,6.00000161 C17.4307463,5.99933425 17.0936789,6.20654786 16.9139772,6.51353098 C16.8259877,6.66401944 16.775563,6.83853268 16.7759014,7.02572564 L16.7759014,13.9752229 C16.0496496,14.0906752 15.3426878,14.3352607 14.6858123,14.7089793 C13.755831,15.2381915 12.9818618,16.0006441 12.4478332,16.9125842 C11.3571018,18.7755046 11.356425,21.0888894 12.4461411,22.9501414 C12.5077337,23.0555834 12.5733874,23.1586897 12.6407333,23.2597939 L7.32718264,28.1872067 C7.25205314,28.2576126 7.18876838,28.3366941 7.13935889,28.4211145 C6.95728831,28.7327691 6.94984305,29.1235052 7.13935889,29.4465048 L13.6038799,40.4868858 C13.8911994,40.9777251 14.5274312,41.1458985 15.0252487,40.8619391 L21.0345933,37.4407457 C21.4840166,37.9746294 22.0336125,38.4391082 22.6769511,38.8054859 C25.5988794,40.4685336 29.3482475,39.4781793 31.0359538,36.5975431 C31.0978848,36.4914338 31.155078,36.3839897 31.2095638,36.2758782 L38.1959302,38.3486816 C38.6571983,38.486824 39.1550158,38.2922902 39.3963101,37.8795314 L45.8611695,26.8401514 C46.1474738,26.3496457 45.9769095,25.7223324 45.4787536,25.4390404 Z M38.4280871,23.7936776 L42.1480125,25.9111938 L38.263276,26.7894324 L37.2974221,24.830413 C37.7126648,24.5371106 38.0927118,24.1914209 38.4280871,23.7936776 Z M35.7464379,16.4848099 C37.364091,17.4054256 38.0913581,19.2700144 37.6273827,20.9690992 L34.2472321,19.0451159 C33.7507683,18.7621575 33.1141981,18.9299972 32.8275554,19.4205028 C32.5398974,19.9106748 32.7104617,20.5379881 33.2079408,20.8212802 L36.587076,22.7449298 C35.3264572,23.9905472 33.3250345,24.3028692 31.7077198,23.3822535 C29.7797344,22.2844551 29.1160905,19.8439393 30.2298346,17.9423124 C31.3425633,16.0410191 33.8184525,15.3870116 35.7464379,16.4848099 Z M14.2485722,17.9379746 C14.6005302,17.3373554 15.1112077,16.8345037 15.7254421,16.4848099 C16.058787,16.2949475 16.4120987,16.1564714 16.775563,16.0673796 L16.775563,19.8135747 C16.775563,20.3794914 17.2408921,20.838965 17.8155312,20.8382977 C18.3901703,20.838965 18.8554994,20.3794914 18.8554994,19.813241 L18.855161,16.1070872 C19.2643122,16.2218722 19.6460512,16.3963854 19.9909024,16.623286 C19.9939482,16.6249544 19.9963171,16.6276238 19.9993629,16.6299595 C20.0047777,16.63363 20.0101924,16.6366331 20.016284,16.6396362 C20.5141015,16.9723124 20.9327285,17.4144349 21.2423839,17.942646 C21.9615288,19.1722469 21.9615288,20.6994879 21.2410302,21.9297562 C20.8890722,22.5310427 20.3787331,23.0335607 19.7641602,23.3822535 C18.8301178,23.9148024 17.741417,24.0566153 16.6997566,23.7809978 C15.9677517,23.5871313 15.3210288,23.2044035 14.8130587,22.6751913 C14.8096745,22.6705198 14.8066287,22.6665156 14.8025676,22.6628452 C14.8005371,22.6598421 14.7978297,22.65784 14.7954608,22.6555043 C14.5876702,22.4362783 14.4028922,22.1923602 14.2468801,21.9254184 C13.5273967,20.6958175 13.528412,19.1682428 14.2485722,17.9379746 Z M18.855161,9.63374746 L21.5696371,12.5113805 L20.2528404,14.4306924 C19.9567219,14.2998909 19.6484202,14.1904447 19.3289506,14.1066917 C19.1719232,14.0649821 19.0138805,14.0316143 18.8558378,14.0022507 L18.855161,9.63374746 Z M16.2753765,37.7820976 L17.4463137,34.0255585 L19.651466,34.1807184 C19.7035828,34.6882416 19.8193229,35.1864218 19.996994,35.662913 L16.2753765,37.7820976 Z M29.2335227,35.5714854 C28.1204555,37.4731124 25.6449047,38.1267862 23.7169194,37.0286542 C23.4018493,36.8488022 23.1216365,36.6342476 22.876958,36.3919979 L26.2560933,34.4683483 C26.753234,34.1847225 26.9241367,33.5580766 26.6368171,33.0682383 C26.3494976,32.5770653 25.7132658,32.4092256 25.2164635,32.6928513 L21.8380051,34.6158336 C21.5689603,33.6294835 21.6806393,32.5416955 22.2386957,31.5897141 C23.3524398,29.6874198 25.8273137,29.033746 27.7556375,30.131878 C29.6846381,31.2296763 30.3476051,33.6695248 29.2335227,35.5714854 Z M38.0057375,36.1517503 L31.8085693,34.3128546 C32.095212,31.9841207 30.981468,29.6006637 28.7949289,28.3557137 C25.8736774,26.6929997 22.123971,27.6830203 20.4372799,30.5636564 C20.1425151,31.0675092 19.9313403,31.5967214 19.7969871,32.1349429 L16.7684561,31.9217231 C16.3653965,31.8940278 15.9900875,32.0969037 15.7941416,32.4319157 C15.7559,32.4963154 15.7240884,32.568056 15.7007374,32.6434671 L14.2116843,37.4227271 L9.35161801,29.1248399 L14.0637942,24.7550019 C14.6820897,25.2138082 15.3904052,25.5568285 16.1609902,25.761039 C17.7400633,26.1771346 19.3888512,25.9632474 20.80379,25.1577504 C21.7341098,24.6285382 22.508079,23.8660856 23.042446,22.9541455 C24.132839,21.0912251 24.1331774,18.7778403 23.0437997,16.9165883 C22.7497117,16.4147377 22.38997,15.965608 21.9774346,15.5752056 L23.7554994,12.9842013 C24.0269131,12.589461 23.9859642,12.0609162 23.6553267,11.711556 L20.2024156,8.05078233 L29.9211945,8.05044865 L31.4244613,14.3486078 C30.2051298,14.835443 29.1350421,15.7096775 28.4280803,16.9172557 C26.7417277,19.7975582 27.7461617,23.4947027 30.6677516,25.1577504 C32.1662804,26.0109633 33.8820757,26.1644548 35.4262915,25.7233334 L36.7549329,28.4181114 C36.9664462,28.8478877 37.4510653,29.0764567 37.9221475,28.9696799 L42.8647885,27.8515273 L38.0057375,36.1517503 Z"/>
  </g>
</svg>
