<?xml version="1.0" encoding="UTF-8"?>
<svg width="56px" height="56px" viewBox="0 0 56 56" version="1.1" xmlns="http://www.w3.org/2000/svg" xmlns:xlink="http://www.w3.org/1999/xlink">
    <!-- Generator: Sketch 47.1 (45422) - http://www.bohemiancoding.com/sketch -->
    <title>56x56/freeride</title>
    <desc>Created with Sketch.</desc>
    <defs></defs>
    <g id="Symbols" stroke="none" stroke-width="1" fill="none" fill-rule="evenodd">
        <g id="56x56/freeride">
            <rect id="56x56" x="0" y="0" width="56" height="56" rx="2"></rect>
            <text id="FREE-RIDE" font-family="Montserrat-Regular, Montserrat" font-size="8" font-weight="normal" fill="#FFFFFF">
                <tspan x="7" y="49">FREE RIDE</tspan>
            </text>
            <path d="M40.3574822,21.6942634 C38.9342747,21.6088605 37.5973223,21.9077705 36.4328798,22.4628891 C36.4328798,22.4628891 34.7077799,19.6018935 34.2765049,18.8332678 C34.1902499,18.7051635 34.1902499,18.5770592 34.2333774,18.4062535 L34.8371624,16.2711822 C34.8802899,16.1857793 34.9665449,16.1003764 35.0527999,16.1003764 L36.4328798,16.1003764 C36.8210273,16.1003764 37.1229198,15.8014665 37.1229198,15.4171536 L37.1229198,14.8000002 C36.9812569,14.4779156 36.8288803,14.3572982 36.5269878,14.3999996 L31.688855,14.9499998 C31.3438351,14.9927012 31.0850701,15.3010904 31.0850701,15.6000004 C31.0850701,15.9843132 31.3869626,16.1003764 31.77511,16.1003764 L33.15519,16.1003764 C33.3277,16.1003764 33.413955,16.2284807 33.3708275,16.3992864 L32.896425,18.0646421 C32.8532975,18.2354478 32.723915,18.3208507 32.551405,18.3208507 L21.985168,18.3208507 C21.8557855,18.3208507 21.726403,18.1927464 21.7695305,18.0646421 C22.0282955,16.9117036 22.157678,18.0102367 22.157678,16.8999996 C22.157678,16.5156868 21.8557855,16.25 21.467638,16.25 L18.4918406,16.25 C16.9823782,16.3354029 16.0335733,16.9901393 16.0335733,18.2284807 C16.0335733,19.5095235 17.0686332,20.3208507 18.6212231,20.3635521 C18.9662431,20.3635521 19.3112631,20.1073435 19.3112631,19.7657321 C19.3543906,19.3814193 19.0524981,19.0398078 18.6212231,19.0398078 C18.1468207,19.0398078 17.3705257,18.954405 17.3705257,18.2711822 C17.3705257,17.5879593 18.0605657,17.4171536 18.4918406,17.3744522 L20.0875581,17.3744522 C20.691343,17.4171536 20.7661681,17.6750468 20.691343,18.057675 C20.3031956,20.0425218 19.8287931,20.2851163 19.0524981,22.249382 C17.9311832,21.8223677 16.6804857,21.6088605 15.3435333,21.7369648 C11.3758035,22.0785762 8.2706236,25.3238847 8.01185861,29.252416 C7.75309363,34.0776773 11.7639509,38.0062086 16.6373582,37.7072986 C20.691343,37.4083886 23.9259054,34.2057815 24.1846704,30.2345488 C24.4003079,27.1173446 22.7614629,24.3844533 20.3031956,22.8899034 C20.3894506,22.7190977 20.4325781,22.5055905 20.518833,22.3347848 C20.5619605,22.2066805 20.7344705,22.1639791 20.863853,22.249382 L29.7049901,30.2345488 C29.8343726,30.3199517 29.9637551,30.4053545 30.1362651,30.4053545 C30.1362651,30.4053545 30.7112984,30.4053545 31.861365,30.4053545 C32.206385,34.5046915 35.6997124,37.75 39.9262072,37.75 C44.497722,37.75 48.2066868,33.949573 47.9910493,29.3805203 C47.8185393,25.2384819 44.497722,21.9077705 40.3574822,21.6942634 Z M22.8477179,29.7221317 C22.8477179,33.3944544 19.8287931,36.3835543 16.1198282,36.3835543 C12.4108634,36.3835543 9.39193855,33.3944544 9.39193855,29.7221317 C9.39193855,26.049809 12.4108634,23.0607091 16.1198282,23.0607091 C16.9823782,23.0607091 17.8018007,23.2315148 18.5780956,23.5304248 C17.1548882,26.8184347 15.6022983,29.3378189 15.5591708,29.3805203 C15.3435333,29.6794303 15.4729158,30.1064445 15.7748083,30.3199517 C15.9041908,30.4053545 15.9904458,30.4053545 16.1198282,30.4053545 C16.3354657,30.4053545 16.5511032,30.2772503 16.6804857,30.1064445 C16.8098682,29.9356388 18.3624581,27.4589561 19.7856656,24.1709462 C21.640148,25.3238847 22.8477179,27.3735532 22.8477179,29.7221317 Z M35.2253099,23.1888133 C33.3277,24.5125576 32.0770025,26.6049275 31.861365,29.0389089 L31.3438351,29.0389089 C31.2144526,29.0389089 31.0850701,28.9108046 31.1281976,28.7827003 L33.50021,20.754832 C33.5433375,20.6267277 33.7158475,20.6267277 33.7589749,20.7121306 L35.2253099,23.1888133 Z M35.9584774,24.3417519 L38.5461272,28.654596 C38.6323822,28.8254017 38.5461272,28.9962074 38.3304897,28.9962074 L33.241445,28.9962074 C33.413955,27.1173446 34.4490149,25.451989 35.9584774,24.3417519 Z M21.5107655,19.6872963 L32.0770025,19.6872963 C32.206385,19.6872963 32.3357675,19.8154006 32.29264,19.9435049 L29.8775001,28.0994775 C29.8343726,28.2702832 29.6618626,28.3129846 29.5324801,28.1848803 L21.208873,20.6694291 C21.1657455,20.6267277 21.122618,20.5413249 21.1657455,20.455922 C21.2520005,20.2424149 21.295128,20.0289077 21.3382555,19.8154006 C21.381383,19.7726992 21.4245105,19.6872963 21.5107655,19.6872963 Z M39.9262072,36.3835543 C36.4328798,36.3835543 33.586465,33.7360659 33.241445,30.4053545 L39.9262072,30.4053545 C40.1849722,30.4053545 40.4006096,30.2772503 40.5299921,30.0637431 C40.6593746,29.850236 40.6593746,29.5940274 40.5299921,29.3805203 L37.1229198,23.7012305 C37.9854698,23.3169176 38.9342747,23.1034105 39.9262072,23.1034105 C43.635172,23.1034105 46.6540969,26.0925104 46.6540969,29.7648331 C46.6540969,33.4371559 43.635172,36.3835543 39.9262072,36.3835543 Z" id="Shape" fill="#FFFFFF" fill-rule="nonzero" transform="translate(28.000000, 26.070855) scale(-1, 1) translate(-28.000000, -26.070855) "></path>
        </g>
    </g>
</svg>