<?xml version="1.0" encoding="UTF-8"?>
<svg width="40px" height="40px" viewBox="0 0 40 40" version="1.1" xmlns="http://www.w3.org/2000/svg" xmlns:xlink="http://www.w3.org/1999/xlink">
    <!-- Generator: Sketch 47.1 (45422) - http://www.bohemiancoding.com/sketch -->
    <title>Icon\Google-on</title>
    <desc>Created with Sketch.</desc>
    <defs>
        <path d="M38.6363636,16.3636364 L20,16.3636364 L20,24.0909091 L30.7272727,24.0909091 C29.7272727,29 25.5454545,31.8181818 20,31.8181818 C13.4545455,31.8181818 8.18181818,26.5454545 8.18181818,20 C8.18181818,13.4545455 13.4545455,8.18181818 20,8.18181818 C22.8181818,8.18181818 25.3636364,9.18181818 27.3636364,10.8181818 L33.1818182,5 C29.6363636,1.90909091 25.0909091,0 20,0 C8.90909091,0 0,8.90909091 0,20 C0,31.0909091 8.90909091,40 20,40 C30,40 39.0909091,32.7272727 39.0909091,20 C39.0909091,18.8181818 38.9090909,17.5454545 38.6363636,16.3636364 Z" id="path-1"></path>
        <path d="M38.6363636,16.3636364 L20,16.3636364 L20,24.0909091 L30.7272727,24.0909091 C29.7272727,29 25.5454545,31.8181818 20,31.8181818 C13.4545455,31.8181818 8.18181818,26.5454545 8.18181818,20 C8.18181818,13.4545455 13.4545455,8.18181818 20,8.18181818 C22.8181818,8.18181818 25.3636364,9.18181818 27.3636364,10.8181818 L33.1818182,5 C29.6363636,1.90909091 25.0909091,0 20,0 C8.90909091,0 0,8.90909091 0,20 C0,31.0909091 8.90909091,40 20,40 C30,40 39.0909091,32.7272727 39.0909091,20 C39.0909091,18.8181818 38.9090909,17.5454545 38.6363636,16.3636364 Z" id="path-3"></path>
        <path d="M38.6363636,16.3636364 L20,16.3636364 L20,24.0909091 L30.7272727,24.0909091 C29.7272727,29 25.5454545,31.8181818 20,31.8181818 C13.4545455,31.8181818 8.18181818,26.5454545 8.18181818,20 C8.18181818,13.4545455 13.4545455,8.18181818 20,8.18181818 C22.8181818,8.18181818 25.3636364,9.18181818 27.3636364,10.8181818 L33.1818182,5 C29.6363636,1.90909091 25.0909091,0 20,0 C8.90909091,0 0,8.90909091 0,20 C0,31.0909091 8.90909091,40 20,40 C30,40 39.0909091,32.7272727 39.0909091,20 C39.0909091,18.8181818 38.9090909,17.5454545 38.6363636,16.3636364 Z" id="path-5"></path>
        <path d="M38.6363636,16.3636364 L20,16.3636364 L20,24.0909091 L30.7272727,24.0909091 C29.7272727,29 25.5454545,31.8181818 20,31.8181818 C13.4545455,31.8181818 8.18181818,26.5454545 8.18181818,20 C8.18181818,13.4545455 13.4545455,8.18181818 20,8.18181818 C22.8181818,8.18181818 25.3636364,9.18181818 27.3636364,10.8181818 L33.1818182,5 C29.6363636,1.90909091 25.0909091,0 20,0 C8.90909091,0 0,8.90909091 0,20 C0,31.0909091 8.90909091,40 20,40 C30,40 39.0909091,32.7272727 39.0909091,20 C39.0909091,18.8181818 38.9090909,17.5454545 38.6363636,16.3636364 Z" id="path-7"></path>
    </defs>
    <g id="Symbols" stroke="none" stroke-width="1" fill="none" fill-rule="evenodd">
        <g id="Icon\Google-on">
            <g>
                <path d="M37.605251,39.8021622 C38.8182239,39.8021622 39.8018533,38.8185328 39.8018533,37.605251 L39.8018533,2.19675676 C39.8018533,0.983320463 38.8183784,0 37.605251,0 L2.19675676,0 C0.983320463,0 0,0.983320463 0,2.19675676 L0,37.605251 C0,38.8183784 0.983166023,39.8021622 2.19675676,39.8021622 L37.605251,39.8021622 Z" id="Rectangle" fill-opacity="0" fill="#3C5A99" fill-rule="nonzero"></path>
                <g id="Group-3">
                    <g id="Clipped">
                        <mask id="mask-2" fill="white">
                            <use xlink:href="#path-1"></use>
                        </mask>
                        <g id="a"></g>
                        <polygon id="Shape" fill="#FBBC05" fill-rule="nonzero" mask="url(#mask-2)" points="-1.81818182 31.8181818 -1.81818182 8.18181818 13.6363636 20"></polygon>
                    </g>
                    <g id="Clipped">
                        <mask id="mask-4" fill="white">
                            <use xlink:href="#path-3"></use>
                        </mask>
                        <g id="a"></g>
                        <polygon id="Shape" fill="#EA4335" fill-rule="nonzero" mask="url(#mask-4)" points="-1.81818182 8.18181818 13.6363636 20 20 14.4545455 41.8181818 10.9090909 41.8181818 -1.81818182 -1.81818182 -1.81818182"></polygon>
                    </g>
                    <g id="Clipped">
                        <mask id="mask-6" fill="white">
                            <use xlink:href="#path-5"></use>
                        </mask>
                        <g id="a"></g>
                        <polygon id="Shape" fill="#34A853" fill-rule="nonzero" mask="url(#mask-6)" points="-1.81818182 31.8181818 25.4545455 10.9090909 32.6363636 11.8181818 41.8181818 -1.81818182 41.8181818 41.8181818 -1.81818182 41.8181818"></polygon>
                    </g>
                    <g id="Clipped">
                        <mask id="mask-8" fill="white">
                            <use xlink:href="#path-7"></use>
                        </mask>
                        <g id="a"></g>
                        <polygon id="Shape" fill="#4285F4" fill-rule="nonzero" mask="url(#mask-8)" points="41.8181818 41.8181818 13.6363636 20 10 17.2727273 41.8181818 8.18181818"></polygon>
                    </g>
                </g>
            </g>
        </g>
    </g>
</svg>