<?xml version="1.0" encoding="UTF-8"?>
<svg width="40px" height="40px" viewBox="0 0 40 40" version="1.1" xmlns="http://www.w3.org/2000/svg" xmlns:xlink="http://www.w3.org/1999/xlink">
    <!-- Generator: Sketch 47.1 (45422) - http://www.bohemiancoding.com/sketch -->
    <title>Icon\Facebook-on</title>
    <desc>Created with Sketch.</desc>
    <defs></defs>
    <g id="Symbols" stroke="none" stroke-width="1" fill="none" fill-rule="evenodd">
        <g id="Icon\Facebook-on">
            <g>
                <path d="M37.6960618,39.892973 C38.9090347,39.892973 39.8926641,38.9093436 39.8926641,37.6960618 L39.8926641,2.28756757 C39.8926641,1.07413127 38.9091892,0.0908108108 37.6960618,0.0908108108 L2.28756757,0.0908108108 C1.07413127,0.0908108108 0.0908108108,1.07413127 0.0908108108,2.28756757 L0.0908108108,37.6960618 C0.0908108108,38.9091892 1.07397683,39.892973 2.28756757,39.892973 L37.6960618,39.892973 Z" id="Rectangle" fill="#3C5A99" fill-rule="nonzero"></path>
                <path d="M27.5535135,39.892973 L27.5535135,24.4793822 L32.7271042,24.4793822 L33.5017761,18.4724324 L27.5535135,18.4724324 L27.5535135,14.6373745 C27.5535135,12.8982239 28.0364479,11.7130502 30.5303475,11.7130502 L33.7111969,11.7116602 L33.7111969,6.33899614 C33.1610811,6.26579151 31.2728958,6.10223938 29.076139,6.10223938 C24.4900386,6.10223938 21.3502703,8.90162162 21.3502703,14.042471 L21.3502703,18.4724324 L16.1633977,18.4724324 L16.1633977,24.4793822 L21.3502703,24.4793822 L21.3502703,39.892973 L27.5535135,39.892973 Z" id="f" fill="#FFFFFF" fill-rule="nonzero"></path>
            </g>
        </g>
    </g>
</svg>